<?xml version="1.0" standalone="no"?>
<!DOCTYPE svg PUBLIC "-//W3C//DTD SVG 20010904//EN"
 "http://www.w3.org/TR/2001/REC-SVG-20010904/DTD/svg10.dtd">
<svg version="1.0" xmlns="http://www.w3.org/2000/svg"
 width="512.000000pt" height="512.000000pt" viewBox="0 0 512.000000 512.000000"
 preserveAspectRatio="xMidYMid meet">
<metadata>
Created by potrace 1.14, written by Peter Selinger 2001-2017
</metadata>
<g transform="translate(0.000000,512.000000) scale(0.100000,-0.100000)"
fill="#000000" stroke="none">
<path d="M2565 5109 c-634 -66 -1151 -358 -1467 -828 -179 -268 -264 -528
-297 -906 -9 -106 -18 -135 -230 -770 -136 -406 -221 -675 -221 -699 0 -21 10
-55 21 -76 32 -57 76 -76 209 -90 63 -7 132 -16 152 -21 69 -18 68 -8 68 -449
0 -429 4 -467 55 -555 36 -61 116 -132 183 -162 88 -40 156 -39 516 1 175 20
326 36 335 36 16 0 16 -12 -6 -172 -13 -97 -20 -191 -17 -213 13 -83 63 -148
144 -184 44 -20 59 -21 1150 -20 874 0 1113 3 1141 13 90 32 159 125 159 216
0 25 -27 302 -60 616 -39 361 -58 587 -55 619 10 78 31 143 81 251 229 492
353 1004 371 1534 11 329 -38 595 -157 847 -256 544 -775 895 -1475 999 -123
18 -479 26 -600 13z m604 -174 c641 -91 1106 -416 1336 -930 113 -255 152
-525 126 -880 -35 -470 -147 -900 -354 -1350 -74 -161 -90 -225 -90 -355 0
-58 26 -341 57 -629 31 -288 56 -537 56 -553 0 -17 -10 -39 -25 -53 l-24 -25
-1083 0 c-963 0 -1086 2 -1106 16 -42 29 -43 42 -16 240 14 104 27 190 29 192
2 3 64 11 137 19 73 8 143 21 155 29 44 28 42 101 -2 130 -24 16 -57 13 -583
-45 -306 -34 -575 -61 -598 -61 -54 0 -136 42 -170 87 -52 68 -53 78 -54 513
-1 435 -2 447 -54 514 -42 56 -112 83 -259 99 -71 8 -130 17 -132 19 -3 2 94
301 216 664 l220 659 10 125 c28 356 118 619 295 866 123 172 248 291 433 416
242 162 558 272 881 308 120 13 464 4 599 -15z"/>
<path d="M2745 4695 c-24 -23 -25 -31 -25 -135 0 -104 1 -112 25 -135 15 -16
36 -25 55 -25 19 0 40 9 55 25 24 23 25 31 25 135 0 104 -1 112 -25 135 -15
16 -36 25 -55 25 -19 0 -40 -9 -55 -25z"/>
<path d="M2302 4637 c-28 -29 -28 -65 -1 -164 24 -88 49 -123 90 -123 41 0 58
9 75 42 14 27 13 36 -11 126 -15 54 -36 107 -48 120 -28 30 -77 29 -105 -1z"/>
<path d="M3193 4638 c-12 -13 -33 -66 -48 -120 -24 -90 -25 -99 -11 -126 25
-48 88 -58 123 -19 23 24 63 158 63 210 0 67 -83 103 -127 55z"/>
<path d="M1885 4465 c-36 -35 -31 -66 27 -165 59 -101 87 -121 138 -100 34 14
50 37 50 71 0 28 -97 197 -121 209 -31 17 -69 11 -94 -15z"/>
<path d="M3619 4480 c-23 -13 -119 -183 -119 -209 0 -55 57 -93 108 -72 34 14
132 175 132 216 0 52 -75 92 -121 65z"/>
<path d="M2782 4050 c-12 -13 -134 -452 -376 -1354 -348 -1302 -357 -1336
-341 -1365 12 -24 27 -34 68 -45 307 -86 331 -90 364 -54 16 17 113 366 378
1355 345 1290 356 1333 341 1362 -17 33 -19 33 -214 85 -153 41 -193 44 -220
16z"/>
<path d="M1423 3057 c-357 -356 -383 -385 -383 -417 0 -32 26 -61 383 -417
355 -356 385 -383 417 -383 31 0 49 14 177 143 128 128 143 146 143 177 0 31
-20 54 -222 257 l-222 223 222 223 c202 203 222 226 222 257 0 31 -15 49 -143
177 -128 129 -146 143 -177 143 -32 0 -62 -27 -417 -383z"/>
<path d="M3263 3297 c-128 -128 -143 -146 -143 -177 0 -31 20 -54 222 -257
l222 -223 -222 -223 c-202 -203 -222 -226 -222 -257 0 -31 15 -49 143 -177
128 -129 146 -143 177 -143 32 0 62 27 417 383 357 356 383 385 383 417 0 32
-26 61 -383 417 -355 356 -385 383 -417 383 -31 0 -49 -14 -177 -143z"/>
</g>
</svg>
